<svg viewBox="0 0 268 268" xmlns="http://www.w3.org/2000/svg" fill-rule="evenodd" clip-rule="evenodd" stroke-miterlimit="10"><path d="M133.825 12.689v45.12m-25.324-42.48l9.456 44.134M84.283 23.135l18.5 41.219M62.23 35.763l26.737 36.503m-45.66-19.601L77.11 82.857M28.34 73.1l39.393 22.56m-49.751.516l43.26 13.942m-48.554 10.764l45.237 4.717M12.688 146.14l45.237-4.716m-39.943 29.423l43.26-13.943M28.34 193.922l39.393-22.56m-24.427 42.995l33.804-30.19m-14.88 47.092l26.737-36.503m-4.684 49.131l18.5-41.22m5.718 49.027l9.456-44.135m15.868 46.774v-45.12m25.324 42.48l-9.456-44.134m33.675 36.328l-18.501-41.22m40.553 28.592l-26.737-36.503m45.66 19.601l-33.803-30.19m48.77 9.755l-39.393-22.56m49.751-.514l-43.26-13.943m48.554-10.764l-45.237-4.716m45.237-20.543l-45.237 4.717m39.943-29.423l-43.26 13.942M239.31 73.1l-39.393 22.56m24.427-42.995L190.54 82.857m14.88-47.094l-26.737 36.503m4.685-49.131l-18.501 41.219m-5.718-49.024l-9.456 44.133" fill="none" stroke="#de7200" stroke-width="2.5249824" class="rhea-burst-color"/></svg>
